<svg xmlns="http://www.w3.org/2000/svg" viewBox="0 0 512 512" width="512" height="512">
  <defs>
    <linearGradient id="bg" x1="0" y1="0" x2="0" y2="1">
      <stop offset="0" stop-color="#2b2b2b"/><stop offset="1" stop-color="#151515"/>
    </linearGradient>
    <radialGradient id="dough" cx="0.4" cy="0.35" r="0.75">
      <stop offset="0" stop-color="#d6d6d6"/><stop offset="1" stop-color="#828282"/>
    </radialGradient>
    <radialGradient id="chip" cx="0.4" cy="0.32" r="0.85">
      <stop offset="0" stop-color="#6f6f6f"/><stop offset="1" stop-color="#333333"/>
    </radialGradient>
    <radialGradient id="badge" cx="0.4" cy="0.35" r="0.9">
      <stop offset="0" stop-color="#5a5a5a"/><stop offset="1" stop-color="#1d1d1d"/>
    </radialGradient>
    <radialGradient id="glow" cx="0.5" cy="0.42" r="0.6">
      <stop offset="0" stop-color="#ffffff" stop-opacity="0.10"/>
      <stop offset="1" stop-color="#ffffff" stop-opacity="0"/>
    </radialGradient>
    <mask id="bite">
      <rect width="48" height="48" fill="#fff"/>
      <circle cx="30" cy="8" r="4" fill="#000"/>
      <circle cx="34" cy="11" r="3.4" fill="#000"/>
      <circle cx="32" cy="13.5" r="2.6" fill="#000"/>
      <circle cx="36.5" cy="15.5" r="2.4" fill="#000"/>
    </mask>
  </defs>

  <rect width="512" height="512" rx="112" fill="url(#bg)"/>
  <rect width="512" height="512" rx="112" fill="url(#glow)"/>

  <g transform="translate(256 256) scale(9.4) translate(-24 -24)">
    <circle cx="20" cy="20" r="15" fill="url(#dough)" stroke="#6f6f6f" stroke-width="0.4" mask="url(#bite)"/>
    <g fill="url(#chip)">
      <circle cx="13" cy="15" r="2"/><circle cx="22" cy="12" r="1.4"/><circle cx="12" cy="23" r="1.7"/>
      <circle cx="18" cy="26" r="1.9"/><circle cx="24" cy="19" r="1.6"/><circle cx="15" cy="20" r="1.3"/>
    </g>
    <circle cx="35" cy="35" r="8" fill="url(#badge)" stroke="#ededed" stroke-opacity="0.45" stroke-width="0.5"/>
    <path d="M32 34v-2a3 3 0 0 1 6 0v2" fill="none" stroke="#ededed" stroke-width="1.4"/>
    <rect x="31.5" y="34" width="7" height="6" rx="1.3" fill="#ededed"/>
    <circle cx="35" cy="36.4" r="0.9" fill="#2a2a2a"/>
    <rect x="34.6" y="36.4" width="0.8" height="2.1" rx="0.4" fill="#2a2a2a"/>
  </g>
</svg>
